<?xml version="1.0" encoding="UTF-8"?>
<svg xmlns="http://www.w3.org/2000/svg" xmlns:xlink="http://www.w3.org/1999/xlink" width="16px" height="16px" viewBox="0 0 16 16" version="1.1">
<g id="surface68272">
<path style=" stroke:none;fill-rule:nonzero;fill:rgb(0%,0%,0%);fill-opacity:1;" d="M 5 1 L 3 15 L 13 15 L 11 1 Z M 6.375 2 L 9.78125 2.03125 L 11 12 L 5 12 Z M 6.375 2 "/>
<path style="fill:none;stroke-width:1;stroke-linecap:butt;stroke-linejoin:miter;stroke:rgb(0%,0%,0%);stroke-opacity:1;stroke-miterlimit:4;" d="M 168 180 L 174 175 " transform="matrix(1,0,0,1,-160,-170)"/>
<path style=" stroke:none;fill-rule:nonzero;fill:rgb(0%,0%,0%);fill-opacity:1;" d="M 16 4.5 C 16 5.328125 15.328125 6 14.5 6 C 13.671875 6 13 5.328125 13 4.5 C 13 3.671875 13.671875 3 14.5 3 C 15.328125 3 16 3.671875 16 4.5 Z M 16 4.5 "/>
<path style=" stroke:none;fill-rule:nonzero;fill:rgb(0%,0%,0%);fill-opacity:1;" d="M 9 10 C 9 10.550781 8.550781 11 8 11 C 7.449219 11 7 10.550781 7 10 C 7 9.449219 7.449219 9 8 9 C 8.550781 9 9 9.449219 9 10 Z M 9 10 "/>
<path style=" stroke:none;fill-rule:nonzero;fill:rgb(0%,0%,0%);fill-opacity:1;" d="M 7 3 L 9 3 L 9 4 L 7 4 Z M 7 3 "/>
<path style=" stroke:none;fill-rule:nonzero;fill:rgb(0%,0%,0%);fill-opacity:1;" d="M 7 5 L 9 5 L 9 6 L 7 6 Z M 7 5 "/>
<path style=" stroke:none;fill-rule:nonzero;fill:rgb(0%,0%,0%);fill-opacity:1;" d="M 7 7 L 9 7 L 9 8 L 7 8 Z M 7 7 "/>
</g>
</svg>
